<svg xmlns="http://www.w3.org/2000/svg" width="31.048" height="31.047" viewBox="0 0 31.048 31.047"><defs><style>.a{opacity:0.5;}.b{fill:#959594;}</style></defs><g class="a"><path class="b" d="M30.954,9.124a11.4,11.4,0,0,0-.722-3.768,7.608,7.608,0,0,0-1.791-2.75A7.609,7.609,0,0,0,25.692.815,11.393,11.393,0,0,0,21.924.094C20.269.018,19.74,0,15.524,0s-4.745.018-6.4.093A11.4,11.4,0,0,0,5.355.815a7.608,7.608,0,0,0-2.75,1.791A7.609,7.609,0,0,0,.815,5.355,11.394,11.394,0,0,0,.094,9.123C.018,10.779,0,11.308,0,15.524s.018,4.745.094,6.4a11.4,11.4,0,0,0,.721,3.768,7.607,7.607,0,0,0,1.791,2.749,7.606,7.606,0,0,0,2.75,1.791,11.391,11.391,0,0,0,3.768.722c1.656.076,2.184.093,6.4.093s4.745-.018,6.4-.093a11.392,11.392,0,0,0,3.768-.722,7.937,7.937,0,0,0,4.54-4.54,11.394,11.394,0,0,0,.722-3.768c.075-1.656.093-2.185.093-6.4S31.03,10.779,30.954,9.124ZM28.16,21.8a8.589,8.589,0,0,1-.534,2.883,5.14,5.14,0,0,1-2.946,2.946,8.589,8.589,0,0,1-2.883.534c-1.637.075-2.128.09-6.273.09s-4.636-.016-6.273-.09a8.592,8.592,0,0,1-2.883-.534,4.81,4.81,0,0,1-1.785-1.161A4.809,4.809,0,0,1,3.422,24.68,8.589,8.589,0,0,1,2.888,21.8c-.075-1.637-.09-2.128-.09-6.273s.016-4.636.09-6.273a8.6,8.6,0,0,1,.534-2.883A4.812,4.812,0,0,1,4.583,4.583,4.806,4.806,0,0,1,6.368,3.422a8.587,8.587,0,0,1,2.883-.535c1.637-.075,2.128-.09,6.273-.09h0c4.145,0,4.636.016,6.273.091a8.59,8.59,0,0,1,2.883.534,4.813,4.813,0,0,1,1.785,1.161,4.806,4.806,0,0,1,1.161,1.785,8.581,8.581,0,0,1,.535,2.883c.075,1.637.09,2.128.09,6.273S28.235,20.16,28.16,21.8Z" transform="translate(0 0)"/><path class="b" d="M131.679,124.539a7.14,7.14,0,1,0,7.14,7.14A7.14,7.14,0,0,0,131.679,124.539Zm0,11.775a4.635,4.635,0,1,1,4.635-4.635A4.635,4.635,0,0,1,131.679,136.314Z" transform="translate(-116.156 -116.156)"/><path class="b" d="M366.066,90.693A2.068,2.068,0,1,1,364,88.625,2.068,2.068,0,0,1,366.066,90.693Z" transform="translate(-340.312 -83.331)"/></g></svg>