<svg xmlns="http://www.w3.org/2000/svg" width="37.521" height="26.273" viewBox="0 0 37.521 26.273"><defs><style>.a{fill:#fd4a4a;}.b{fill:#fff;}</style></defs><g transform="translate(0)"><path class="a" d="M-439.252,90.112a4.7,4.7,0,0,0-3.307-3.307c-2.936-.8-14.681-.8-14.681-.8s-11.745,0-14.681.773a4.8,4.8,0,0,0-3.307,3.338C-476,93.048-476,99.136-476,99.136s0,6.119.773,9.025a4.7,4.7,0,0,0,3.307,3.307c2.967.8,14.681.8,14.681.8s11.745,0,14.681-.773a4.7,4.7,0,0,0,3.307-3.307c.773-2.936.773-9.025.773-9.025S-438.448,93.048-439.252,90.112Z" transform="translate(476 -86.001)"/><path class="b" d="M-271.031,195.93l7.721-3.723-7.721-3.723Z" transform="translate(286.953 -179.072)"/></g></svg>