<svg xmlns="http://www.w3.org/2000/svg" width="35.273" height="28.66" viewBox="0 0 35.273 28.66"><defs><style>.a{fill:#959594;opacity:0.5;}</style></defs><path class="a" d="M35.273,51.393a15.076,15.076,0,0,1-4.167,1.142,7.191,7.191,0,0,0,3.181-4,14.451,14.451,0,0,1-4.585,1.75,7.231,7.231,0,0,0-12.509,4.945,7.446,7.446,0,0,0,.168,1.649A20.468,20.468,0,0,1,2.456,49.318a7.233,7.233,0,0,0,2.222,9.665,7.141,7.141,0,0,1-3.267-.891v.079A7.265,7.265,0,0,0,7.2,65.277a7.218,7.218,0,0,1-1.9.238,6.393,6.393,0,0,1-1.369-.123A7.3,7.3,0,0,0,10.7,70.429a14.53,14.53,0,0,1-8.966,3.084A13.546,13.546,0,0,1,0,73.414a20.358,20.358,0,0,0,11.093,3.245c13.307,0,20.582-11.023,20.582-20.577,0-.32-.011-.628-.026-.935A14.426,14.426,0,0,0,35.273,51.393Z" transform="translate(0 -48)"/></svg>